<svg xmlns="http://www.w3.org/2000/svg" xmlns:xlink="http://www.w3.org/1999/xlink" viewBox="0 0 750 500"><defs><linearGradient id="a" x1="376.2" x2="373.8" y1="2.7" y2="488.5" gradientUnits="userSpaceOnUse"><stop offset="0" stop-color="#fff"/><stop offset="1" stop-color="#c3e5ff"/></linearGradient><linearGradient id="d" x1="171.8" x2="364" y1="129.2" y2="129.2" gradientUnits="userSpaceOnUse"><stop offset="0" stop-color="#0ff"/><stop offset="1" stop-color="#0063f4"/></linearGradient><linearGradient id="e" x1="171.8" x2="364" y1="138.7" y2="138.7" xlink:href="#d"/><linearGradient id="f" x1="171.8" x2="364" y1="148.1" y2="148.1" xlink:href="#d"/><linearGradient id="g" x1="171.8" x2="364" y1="157.6" y2="157.6" xlink:href="#d"/><linearGradient id="h" x1="171.8" x2="364" y1="167" y2="167" xlink:href="#d"/><linearGradient id="i" x1="171.8" x2="364" y1="176.4" y2="176.4" xlink:href="#d"/><linearGradient id="j" x1="171.8" x2="364" y1="185.9" y2="185.9" xlink:href="#d"/><linearGradient id="k" x1="171.8" x2="364" y1="195.3" y2="195.3" xlink:href="#d"/><linearGradient id="l" x1="171.8" x2="364" y1="204.8" y2="204.8" xlink:href="#d"/><linearGradient id="m" x1="171.8" x2="364" y1="214.2" y2="214.2" xlink:href="#d"/><linearGradient id="n" x1="171.8" x2="364" y1="223.7" y2="223.7" xlink:href="#d"/><linearGradient id="o" x1="171.8" x2="364" y1="233.1" y2="233.1" xlink:href="#d"/><linearGradient id="p" x1="171.8" x2="364" y1="242.6" y2="242.6" xlink:href="#d"/><linearGradient id="q" x1="171.8" x2="364" y1="252" y2="252" xlink:href="#d"/><linearGradient id="r" x1="171.8" x2="364" y1="261.4" y2="261.4" xlink:href="#d"/><linearGradient id="s" x1="171.8" x2="364" y1="270.9" y2="270.9" xlink:href="#d"/><linearGradient id="t" x1="171.8" x2="364" y1="280.4" y2="280.4" xlink:href="#d"/><linearGradient id="u" x1="171.8" x2="364" y1="289.8" y2="289.8" xlink:href="#d"/><linearGradient id="v" x1="171.8" x2="364" y1="299.2" y2="299.2" xlink:href="#d"/><linearGradient id="w" x1="171.8" x2="364" y1="308.7" y2="308.7" xlink:href="#d"/><linearGradient id="x" x1="171.8" x2="364" y1="318.1" y2="318.1" xlink:href="#d"/><linearGradient id="y" x1="171.8" x2="364" y1="327.6" y2="327.6" xlink:href="#d"/><linearGradient id="z" x1="171.8" x2="364" y1="337" y2="337" xlink:href="#d"/><linearGradient id="aa" x1="171.8" x2="364" y1="346.5" y2="346.5" xlink:href="#d"/><linearGradient id="ab" x1="171.8" x2="364" y1="355.9" y2="355.9" xlink:href="#d"/><linearGradient id="ac" x1="171.8" x2="364" y1="365.4" y2="365.4" xlink:href="#d"/><linearGradient id="ad" x1="171.8" x2="364" y1="374.8" y2="374.8" xlink:href="#d"/><linearGradient id="ah" x1="531" x2="720.3" y1="379.3" y2="379.3" gradientUnits="userSpaceOnUse"><stop offset="0" stop-color="#6a4eff"/><stop offset="1" stop-color="#ff8cce"/></linearGradient><linearGradient id="ai" x1="531" x2="720.3" y1="388.8" y2="388.8" xlink:href="#ah"/><linearGradient id="aj" x1="531" x2="720.3" y1="398.2" y2="398.2" xlink:href="#ah"/><linearGradient id="ak" x1="531" x2="720.3" y1="407.7" y2="407.7" xlink:href="#ah"/><linearGradient id="al" x1="531" x2="720.3" y1="417.1" y2="417.1" xlink:href="#ah"/><linearGradient id="am" x1="531" x2="720.3" y1="426.6" y2="426.6" xlink:href="#ah"/><linearGradient id="an" x1="531" x2="720.3" y1="436" y2="436" xlink:href="#ah"/><linearGradient id="ao" x1="531" x2="720.3" y1="445.4" y2="445.4" xlink:href="#ah"/><linearGradient id="ap" x1="531" x2="720.3" y1="454.9" y2="454.9" xlink:href="#ah"/><linearGradient id="aq" x1="531" x2="720.3" y1="464.3" y2="464.3" xlink:href="#ah"/><linearGradient id="ar" x1="531" x2="720.3" y1="473.8" y2="473.8" xlink:href="#ah"/><linearGradient id="as" x1="531" x2="720.3" y1="483.2" y2="483.2" xlink:href="#ah"/><linearGradient id="at" x1="531" x2="720.3" y1="492.7" y2="492.7" xlink:href="#ah"/><linearGradient id="au" x1="531" x2="720.3" y1="502.1" y2="502.1" xlink:href="#ah"/><linearGradient id="av" x1="531" x2="720.3" y1="511.6" y2="511.6" xlink:href="#ah"/><linearGradient id="aw" x1="531" x2="720.3" y1="521" y2="521" xlink:href="#ah"/><linearGradient id="ax" x1="531" x2="720.3" y1="530.5" y2="530.5" xlink:href="#ah"/><linearGradient id="ay" x1="531" x2="720.3" y1="539.9" y2="539.9" xlink:href="#ah"/><linearGradient id="az" x1="531" x2="720.3" y1="549.3" y2="549.3" xlink:href="#ah"/><linearGradient id="ba" x1="531" x2="720.3" y1="558.8" y2="558.8" xlink:href="#ah"/><linearGradient id="bb" x1="531" x2="720.3" y1="568.2" y2="568.2" xlink:href="#ah"/><linearGradient id="bc" x1="531" x2="720.3" y1="577.7" y2="577.7" xlink:href="#ah"/><linearGradient id="bd" x1="531" x2="720.3" y1="587.1" y2="587.1" xlink:href="#ah"/><linearGradient id="be" x1="74" x2="161" y1="56.9" y2="56.9" xlink:href="#d"/><linearGradient id="bf" x1="62.5" x2="149.5" y1="68.4" y2="68.4" xlink:href="#d"/><linearGradient id="bg" x1="51" x2="138" y1="79.9" y2="79.9" xlink:href="#d"/><linearGradient id="bh" x1="598.6" x2="668.6" y1="343.1" y2="343.1" xlink:href="#d"/><linearGradient id="bi" x1="587.1" x2="657.1" y1="354.6" y2="354.6" xlink:href="#d"/><linearGradient id="bj" x1="575.6" x2="645.6" y1="366.1" y2="366.1" xlink:href="#d"/><linearGradient id="bk" x1="209.1" x2="296.1" y1="430" y2="430" xlink:href="#d"/><linearGradient id="bl" x1="197.6" x2="284.6" y1="441.5" y2="441.5" xlink:href="#d"/><linearGradient id="bm" x1="463.1" x2="550.1" y1="295.5" y2="295.5" xlink:href="#d"/><linearGradient id="bn" x1="530.8" x2="617.8" y1="159.9" y2="159.9" xlink:href="#d"/><linearGradient id="bo" x1="-42.5" x2="44.5" y1="149.6" y2="149.6" xlink:href="#d"/><linearGradient id="bp" x1="707.5" x2="794.5" y1="338" y2="338" xlink:href="#d"/><linearGradient id="bq" x1="367.9" x2="454.9" y1="121.8" y2="121.8" xlink:href="#d"/><linearGradient id="br" x1="107.7" x2="150.8" y1="275.4" y2="275.4" xlink:href="#ah"/><linearGradient id="bs" x1="-21.6" x2="21.6" y1="446" y2="446" xlink:href="#ah"/><linearGradient id="bt" x1="366.6" x2="563.8" y1="509.6" y2="509.6" xlink:href="#d"/><linearGradient id="bu" x1="237.7" x2="388.3" y1="92.6" y2="92.6" xlink:href="#d"/><linearGradient id="bv" x1="629.9" x2="827.1" y1="129.8" y2="129.8" xlink:href="#d"/><linearGradient id="bw" x1="517.5" x2="714.7" y1="40" y2="40" xlink:href="#d"/><linearGradient id="bx" x1="662.9" x2="860.1" y1="398.7" y2="398.7" xlink:href="#d"/><linearGradient id="by" x1="-70.3" x2="113.1" y1="66.8" y2="66.8" xlink:href="#ah"/><linearGradient id="bz" x1="646.3" x2="790.1" y1="201" y2="201" xlink:href="#ah"/><linearGradient id="ca" x1="170.9" x2="284" y1="357.8" y2="357.8" xlink:href="#ah"/><linearGradient id="cb" x1="23.1" x2="136.3" y1="164.3" y2="164.3" xlink:href="#ah"/><linearGradient id="cc" x1="398.9" x2="512.1" y1="413" y2="413" xlink:href="#ah"/><linearGradient id="cd" x1="366.5" x2="479.6" y1="33.2" y2="33.2" xlink:href="#ah"/><linearGradient id="ce" x1="323.6" x2="436.1" y1="214.9" y2="214.9" gradientUnits="userSpaceOnUse"><stop offset="0" stop-color="#ff0ac8"/><stop offset="1" stop-color="#9da7ff"/></linearGradient><linearGradient id="cf" x1="322.5" x2="437.1" y1="214.9" y2="214.9" gradientUnits="userSpaceOnUse"><stop offset="0" stop-color="#72ffff"/><stop offset="1" stop-color="#0042d0"/></linearGradient><linearGradient id="cg" x1="467.4" x2="483.1" y1="119.3" y2="119.3" xlink:href="#d"/><linearGradient id="ch" x1="483" x2="498.8" y1="134.9" y2="134.9" xlink:href="#d"/><linearGradient id="ci" x1="498.7" x2="514.4" y1="150.6" y2="150.6" xlink:href="#d"/><linearGradient id="cj" x1="514.4" x2="530.1" y1="166.3" y2="166.3" xlink:href="#d"/><linearGradient id="ck" x1="173.9" x2="189.6" y1="117.3" y2="117.3" xlink:href="#d"/><linearGradient id="cl" x1="189.6" x2="205.3" y1="133" y2="133" xlink:href="#d"/><linearGradient id="cm" x1="205.2" x2="221" y1="148.6" y2="148.6" xlink:href="#d"/><linearGradient id="cn" x1="407.4" x2="419.1" y1="199.3" y2="199.3" gradientUnits="userSpaceOnUse"><stop offset="0" stop-color="#ff87ff"/><stop offset="1" stop-color="#549cff"/></linearGradient><linearGradient id="co" x1="423" x2="434.8" y1="214.9" y2="214.9" xlink:href="#cn"/><linearGradient id="cp" x1="438.7" x2="450.5" y1="230.6" y2="230.6" xlink:href="#cn"/><linearGradient id="cq" x1="194" x2="306.5" y1="525.1" y2="525.1" xlink:href="#ce"/><linearGradient id="cr" x1="193" x2="307.6" y1="525.1" y2="525.1" xlink:href="#cf"/><linearGradient id="cs" x1="671.5" x2="784" y1="14.6" y2="14.6" xlink:href="#ce"/><linearGradient id="ct" x1="670.4" x2="785" y1="14.6" y2="14.6" xlink:href="#cf"/><linearGradient id="cu" x1="81.5" x2="176.3" y1="150.9" y2="150.9" xlink:href="#ce"/><linearGradient id="cv" x1="80.5" x2="177.4" y1="150.9" y2="150.9" xlink:href="#cf"/><linearGradient id="cw" x1="308" x2="402.8" y1="486.4" y2="486.4" xlink:href="#ce"/><linearGradient id="cx" x1="306.9" x2="403.9" y1="486.4" y2="486.4" xlink:href="#cf"/><linearGradient id="cy" x1="-22" x2="72.8" y1="427.1" y2="427.1" xlink:href="#ce"/><linearGradient id="cz" x1="-23.1" x2="73.9" y1="427.1" y2="427.1" xlink:href="#cf"/><linearGradient id="da" x1="541.6" x2="636.4" y1="233.2" y2="233.2" xlink:href="#ce"/><linearGradient id="db" x1="540.5" x2="637.4" y1="233.2" y2="233.2" xlink:href="#cf"/><clipPath id="b"><path d="M0 0h750v500H0z" class="a"/></clipPath><clipPath id="c"><circle cx="265.6" cy="249.9" r="81.8" class="a"/></clipPath><clipPath id="ae"><circle cx="479.3" r="34.8" class="a"/></clipPath><clipPath id="af"><circle cx="142.9" cy="500" r="28.3" class="a"/></clipPath><clipPath id="ag"><circle cx="623.3" cy="500" r="81.8" class="a"/></clipPath><style>.a,.ah,.bv,.ca,.ch,.co,.da{fill:none}.d{fill:#0f2b68;opacity:.61}.ah,.bv,.ca,.co,.da{stroke-miterlimit:10}.ah{stroke:#78d6ff}.ah,.bv,.ca,.ch{stroke-width:2px}.bu{fill:#00ffca}.bv{stroke:#00cfff}.bz{fill:#27a0df}.ca,.ch{stroke:#0074ff}.ch,.co{stroke-linecap:round}.ch{stroke-linejoin:round}.co{stroke:#83d9ff;stroke-width:8px}.cp{fill:#fff}.da{stroke:#fff}</style></defs><path fill="url(#a)" d="M0 0h750v500H0z"/><g clip-path="url(#b)"><circle cx="319.3" cy="312.1" r="51.1" class="d"/><circle cx="705.1" cy="500" r="81.8" class="d"/><circle cx="81.8" r="81.8" class="d"/><g fill="none" stroke-miterlimit="10" stroke-width="5" clip-path="url(#c)"><path stroke="url(#d)" d="M174 35l188 189"/><path stroke="url(#e)" d="M174 44l188 189"/><path stroke="url(#f)" d="M174 54l188 188"/><path stroke="url(#g)" d="M174 63l188 189"/><path stroke="url(#h)" d="M174 73l188 188"/><path stroke="url(#i)" d="M174 82l188 189"/><path stroke="url(#j)" d="M174 92l188 188"/><path stroke="url(#k)" d="M174 101l188 189"/><path stroke="url(#l)" d="M174 111l188 188"/><path stroke="url(#m)" d="M174 120l188 189"/><path stroke="url(#n)" d="M174 129l188 189"/><path stroke="url(#o)" d="M174 139l188 188"/><path stroke="url(#p)" d="M174 148l188 189"/><path stroke="url(#q)" d="M174 158l188 188"/><path stroke="url(#r)" d="M174 167l188 189"/><path stroke="url(#s)" d="M174 177l188 188"/><path stroke="url(#t)" d="M174 186l188 189"/><path stroke="url(#u)" d="M174 196l188 188"/><path stroke="url(#v)" d="M174 205l188 189"/><path stroke="url(#w)" d="M174 214l188 189"/><path stroke="url(#x)" d="M174 224l188 189"/><path stroke="url(#y)" d="M174 233l188 189"/><path stroke="url(#z)" d="M174 243l188 188"/><path stroke="url(#aa)" d="M174 252l188 189"/><path stroke="url(#ab)" d="M174 262l188 188"/><path stroke="url(#ac)" d="M174 271l188 189"/><path stroke="url(#ad)" d="M174 281l188 188"/></g><g clip-path="url(#ae)"><path d="M387-187L576 2M387-177L576 11M387-168L576 21M387-158L576 30M387-149L576 40M387-139L576 49M387-130L576 59M387-120L576 68M387-111L576 78M387-102L576 87M387-92L576 97M387-83l189 189M387-73l189 188M387-64l189 189M387-54l189 188M387-45l189 189M387-35l189 188M387-26l189 189M387-17l189 189M387-7l189 189M387 2l189 189M387 12l189 188M387 21l189 189M387 31l189 188" class="ah"/></g><g clip-path="url(#af)"><path d="M51 285l189 189M51 294l189 189M51 304l189 189M51 313l189 189M51 323l189 188M51 332l189 189M51 342l189 188M51 351l189 189M51 361l189 188M51 370l189 189M51 379l189 189M51 389l189 189M51 398l189 189M51 408l189 189M51 417l189 189M51 427l189 188M51 436l189 189M51 446l189 188M51 455l189 189M51 465l189 188M51 474l189 189M51 483l189 189M51 493l189 189" class="ah"/></g><g fill="none" stroke-miterlimit="10" clip-path="url(#ag)"><path stroke="url(#ah)" d="M531 285l189 189"/><path stroke="url(#ai)" d="M531 294l189 189"/><path stroke="url(#aj)" d="M531 304l189 189"/><path stroke="url(#ak)" d="M531 313l189 189"/><path stroke="url(#al)" d="M531 323l189 188"/><path stroke="url(#am)" d="M531 332l189 189"/><path stroke="url(#an)" d="M531 342l189 188"/><path stroke="url(#ao)" d="M531 351l189 189"/><path stroke="url(#ap)" d="M531 361l189 188"/><path stroke="url(#aq)" d="M531 370l189 189"/><path stroke="url(#ar)" d="M531 379l189 189"/><path stroke="url(#as)" d="M531 389l189 189"/><path stroke="url(#at)" d="M531 398l189 189"/><path stroke="url(#au)" d="M531 408l189 189"/><path stroke="url(#av)" d="M531 417l189 189"/><path stroke="url(#aw)" d="M531 427l189 188"/><path stroke="url(#ax)" d="M531 436l189 189"/><path stroke="url(#ay)" d="M531 446l189 188"/><path stroke="url(#az)" d="M531 455l189 189"/><path stroke="url(#ba)" d="M531 465l189 188"/><path stroke="url(#bb)" d="M531 474l189 189"/><path stroke="url(#bc)" d="M531 483l189 189"/><path stroke="url(#bd)" d="M531 493l189 189"/></g><path fill="none" stroke="url(#be)" stroke-miterlimit="10" stroke-width="4" d="M159 100V83h-17V66h-17V49h-17V32H91V15H74"/><path fill="none" stroke="url(#bf)" stroke-miterlimit="10" stroke-width="4" d="M147 112V95h-17V78h-17V61H96V44H79V27H62"/><path fill="none" stroke="url(#bg)" stroke-miterlimit="10" stroke-width="4" d="M136 123v-17h-17V89h-17V72H85V55H68V38H51"/><path fill="none" stroke="url(#bh)" stroke-miterlimit="10" stroke-width="4" d="M667 378v-17h-17v-17h-17v-17h-17v-17h-17"/><path fill="none" stroke="url(#bi)" stroke-miterlimit="10" stroke-width="4" d="M655 390v-17h-17v-17h-17v-17h-17v-17h-17"/><path fill="none" stroke="url(#bj)" stroke-miterlimit="10" stroke-width="4" d="M644 401v-17h-17v-17h-17v-17h-17v-17h-17"/><path fill="none" stroke="url(#bk)" stroke-miterlimit="10" stroke-width="4" d="M294 474v-17h-17v-17h-17v-17h-17v-17h-17v-17h-17"/><path fill="none" stroke="url(#bl)" stroke-miterlimit="10" stroke-width="4" d="M283 485v-17h-17v-17h-17v-17h-17v-17h-17v-17h-17"/><path fill="none" stroke="url(#bm)" stroke-miterlimit="10" stroke-width="4" d="M548 339v-17h-17v-17h-17v-17h-17v-17h-17v-17h-17"/><path fill="none" stroke="url(#bn)" stroke-miterlimit="10" stroke-width="4" d="M616 203v-17h-17v-17h-17v-17h-17v-17h-17v-17h-17"/><path fill="none" stroke="url(#bo)" stroke-miterlimit="10" stroke-width="4" d="M43 193v-17H26v-17H9v-17H-9v-17h-17v-17h-17"/><path fill="none" stroke="url(#bp)" stroke-miterlimit="10" stroke-width="4" d="M793 382v-17h-17v-17h-17v-17h-17v-17h-17v-17h-17"/><path fill="none" stroke="url(#bq)" stroke-miterlimit="10" stroke-width="4" d="M453 165v-17h-17v-17h-17v-17h-17V97h-17V80h-17"/><circle cx="113.8" cy="259.9" r="21.1" class="bu"/><circle cx="329.3" r="21.1" class="bu"/><circle cx="500.5" cy="186.8" r="3.6" class="bu"/><circle cx="512" cy="198.3" r="3.6" class="bu"/><circle cx="523.5" cy="209.8" r="3.6" class="bu"/><circle cx="535" cy="221.3" r="3.6" class="bu"/><circle cx="546.5" cy="232.8" r="3.6" class="bu"/><circle cx="558" cy="244.3" r="3.6" class="bu"/><circle cx="569.5" cy="255.8" r="3.6" class="bu"/><path d="M4 330a4 4 0 01-4 3 4 4 0 01-4-3 4 4 0 014-4 4 4 0 014 4zM15 341a4 4 0 11-4-4 4 4 0 014 4zM27 353a4 4 0 11-4-4 4 4 0 014 4zM38 364a4 4 0 11-4-4 4 4 0 014 4zM50 376a4 4 0 11-4-4 4 4 0 014 4zM61 387a4 4 0 11-4-4 4 4 0 014 4zM230 466a4 4 0 11-3-4 4 4 0 013 4zM242 477a4 4 0 11-4-4 4 4 0 014 4zM253 489a4 4 0 11-3-4 4 4 0 013 4zM265 500a4 4 0 11-4-4 4 4 0 014 4zM701 18a4 4 0 11-4-3 4 4 0 014 3zM712 30a4 4 0 11-3-4 4 4 0 013 4zM724 41a4 4 0 11-4-3 4 4 0 014 3zM735 53a4 4 0 11-3-4 4 4 0 013 4zM747 64a4 4 0 11-4-3 4 4 0 014 3z" class="bu"/><circle cx="517.5" cy="56.8" r="2.4" class="bu"/><circle cx="525" cy="64.3" r="2.4" class="bu"/><circle cx="532.5" cy="71.8" r="2.4" class="bu"/><circle cx="540" cy="79.3" r="2.4" class="bu"/><circle cx="547.5" cy="86.7" r="2.4" class="bu"/><circle cx="555" cy="94.2" r="2.4" class="bu"/><circle cx="562.4" cy="101.7" r="2.4" class="bu"/><circle cx="42.3" cy="481.2" r="2.4" class="bu"/><circle cx="49.8" cy="488.7" r="2.4" class="bu"/><circle cx="57.3" cy="496.2" r="2.4" class="bu"/><circle cx="491.7" cy="387.3" r="21.1" class="bv"/><circle cx="668.4" cy="229" r="21.9" fill="#0f2b68" opacity=".2"/><circle cx="129.3" cy="275.4" r="21.1" fill="none" stroke="url(#br)" stroke-miterlimit="10"/><circle cy="446" r="21.1" fill="none" stroke="url(#bs)" stroke-miterlimit="10"/><circle cx="689.4" cy="207.3" r="1.7" class="bz"/><circle cx="695.5" cy="213.4" r="1.7" class="bz"/><circle cx="701.6" cy="219.5" r="1.7" class="bz"/><circle cx="707.7" cy="225.6" r="1.7" class="bz"/><circle cx="713.8" cy="231.7" r="1.7" class="bz"/><circle cx="719.9" cy="237.8" r="1.7" class="bz"/><circle cx="726" cy="243.9" r="1.7" class="bz"/><circle cx="732.1" cy="250" r="1.7" class="bz"/><circle cx="683.3" cy="213.4" r="1.7" class="bz"/><circle cx="689.4" cy="219.5" r="1.7" class="bz"/><circle cx="695.5" cy="225.6" r="1.7" class="bz"/><circle cx="701.6" cy="231.7" r="1.7" class="bz"/><circle cx="707.7" cy="237.8" r="1.7" class="bz"/><circle cx="713.8" cy="243.9" r="1.7" class="bz"/><circle cx="719.9" cy="250" r="1.7" class="bz"/><path d="M727 257a2 2 0 110-2 2 2 0 010 2z" class="bz"/><circle cx="677.2" cy="219.5" r="1.7" class="bz"/><circle cx="683.3" cy="225.6" r="1.7" class="bz"/><circle cx="689.4" cy="231.7" r="1.7" class="bz"/><circle cx="695.5" cy="237.8" r="1.7" class="bz"/><circle cx="701.6" cy="243.9" r="1.7" class="bz"/><circle cx="707.7" cy="250" r="1.7" class="bz"/><path d="M715 257a2 2 0 01-2 0 2 2 0 010-2 2 2 0 112 2z" class="bz"/><circle cx="719.9" cy="262.2" r="1.7" class="bz"/><circle cx="671.1" cy="225.6" r="1.7" class="bz"/><circle cx="677.2" cy="231.7" r="1.7" class="bz"/><circle cx="683.3" cy="237.8" r="1.7" class="bz"/><circle cx="689.4" cy="243.9" r="1.7" class="bz"/><circle cx="695.5" cy="250" r="1.7" class="bz"/><path d="M703 257a2 2 0 01-3 0 2 2 0 010-2 2 2 0 113 2z" class="bz"/><circle cx="707.7" cy="262.2" r="1.7" class="bz"/><circle cx="713.8" cy="268.3" r="1.7" class="bz"/><circle cx="665" cy="231.7" r="1.7" class="bz"/><circle cx="671.1" cy="237.8" r="1.7" class="bz"/><circle cx="677.2" cy="243.9" r="1.7" class="bz"/><circle cx="683.3" cy="250" r="1.7" class="bz"/><path d="M691 257a2 2 0 110-2 2 2 0 010 2z" class="bz"/><circle cx="695.5" cy="262.2" r="1.7" class="bz"/><circle cx="701.6" cy="268.3" r="1.7" class="bz"/><path d="M709 276a2 2 0 01-3 0 2 2 0 113-3 2 2 0 010 3z" class="bz"/><circle cx="658.9" cy="237.8" r="1.7" class="bz"/><circle cx="665" cy="243.9" r="1.7" class="bz"/><circle cx="671.1" cy="250" r="1.7" class="bz"/><path d="M678 257a2 2 0 110-2 2 2 0 010 2z" class="bz"/><circle cx="683.3" cy="262.2" r="1.7" class="bz"/><circle cx="689.4" cy="268.3" r="1.7" class="bz"/><path d="M697 276a2 2 0 01-3-3 2 2 0 113 3z" class="bz"/><circle cx="701.6" cy="280.5" r="1.7" class="bz"/><circle cx="652.8" cy="243.9" r="1.7" class="bz"/><circle cx="658.9" cy="250" r="1.7" class="bz"/><path d="M666 257a2 2 0 110-2 2 2 0 010 2z" class="bz"/><circle cx="671.1" cy="262.2" r="1.7" class="bz"/><circle cx="677.2" cy="268.3" r="1.7" class="bz"/><path d="M684 276a2 2 0 11-2-3 2 2 0 012 3z" class="bz"/><circle cx="689.4" cy="280.5" r="1.7" class="bz"/><path d="M697 288a2 2 0 110-3 2 2 0 010 3z" class="bz"/><circle cx="646.7" cy="250" r="1.7" class="bz"/><path d="M654 257a2 2 0 110-2 2 2 0 010 2z" class="bz"/><circle cx="658.9" cy="262.2" r="1.7" class="bz"/><circle cx="665" cy="268.3" r="1.7" class="bz"/><path d="M672 276a2 2 0 01-2-3 2 2 0 112 3z" class="bz"/><circle cx="677.2" cy="280.5" r="1.7" class="bz"/><path d="M684 288a2 2 0 110-3 2 2 0 010 3z" class="bz"/><circle cx="689.4" cy="292.7" r="1.7" class="bz"/><path d="M110 357a2 2 0 110-3 2 2 0 010 3zM118 365a2 2 0 110-3 2 2 0 010 3z" class="bz"/><circle cx="124.4" cy="371.8" r="2.3" class="bz"/><circle cx="132.6" cy="379.9" r="2.3" class="bz"/><path d="M142 390a2 2 0 110-4 2 2 0 010 4zM150 398a2 2 0 110-3 2 2 0 010 3zM159 406a2 2 0 110-3 2 2 0 010 3zM167 414a2 2 0 110-3 2 2 0 010 3z" class="bz"/><circle cx="100" cy="363.6" r="2.3" class="bz"/><path d="M110 373a2 2 0 110-3 2 2 0 010 3zM118 381a2 2 0 110-3 2 2 0 010 3zM126 390a2 2 0 110-4 2 2 0 010 4zM134 398a2 2 0 110-3 2 2 0 010 3z" class="bz"/><circle cx="140.7" cy="404.3" r="2.3" class="bz"/><circle cx="148.8" cy="412.4" r="2.3" class="bz"/><path d="M159 422a2 2 0 110-3 2 2 0 010 3z" class="bz"/><circle cx="91.9" cy="371.8" r="2.3" class="bz"/><circle cx="100" cy="379.9" r="2.3" class="bz"/><path d="M110 390a2 2 0 110-4 2 2 0 010 4zM118 398a2 2 0 110-3 2 2 0 010 3z" class="bz"/><circle cx="124.4" cy="404.3" r="2.3" class="bz"/><circle cx="132.6" cy="412.4" r="2.3" class="bz"/><circle cx="140.7" cy="420.5" r="2.3" class="bz"/><circle cx="148.8" cy="428.6" r="2.3" class="bz"/><circle cx="83.8" cy="379.9" r="2.3" class="bz"/><path d="M94 390a2 2 0 110-4 2 2 0 010 4zM102 398a2 2 0 110-3 2 2 0 010 3zM110 406a2 2 0 110-3 2 2 0 010 3zM118 414a2 2 0 110-3 2 2 0 010 3z" class="bz"/><circle cx="124.4" cy="420.5" r="2.3" class="bz"/><circle cx="132.6" cy="428.6" r="2.3" class="bz"/><path d="M142 438a2 2 0 110-3 2 2 0 010 3zM77 390a2 2 0 110-4 2 2 0 010 4zM85 398a2 2 0 110-3 2 2 0 010 3z" class="bz"/><circle cx="91.9" cy="404.3" r="2.3" class="bz"/><circle cx="100" cy="412.4" r="2.3" class="bz"/><path d="M110 422a2 2 0 110-3 2 2 0 010 3zM118 430a2 2 0 110-3 2 2 0 010 3zM126 438a2 2 0 110-3 2 2 0 010 3zM134 447a2 2 0 110-4 2 2 0 010 4zM69 398a2 2 0 110-3 2 2 0 010 3zM77 406a2 2 0 110-3 2 2 0 010 3z" class="bz"/><circle cx="83.8" cy="412.4" r="2.3" class="bz"/><circle cx="91.9" cy="420.5" r="2.3" class="bz"/><circle cx="100" cy="428.6" r="2.3" class="bz"/><path d="M110 438a2 2 0 110-3 2 2 0 010 3zM118 447a2 2 0 110-4 2 2 0 010 4z" class="bz"/><circle cx="124.4" cy="453" r="2.3" class="bz"/><path d="M61 406a2 2 0 110-3 2 2 0 010 3zM69 414a2 2 0 110-3 2 2 0 010 3zM77 422a2 2 0 110-3 2 2 0 010 3z" class="bz"/><circle cx="83.8" cy="428.6" r="2.3" class="bz"/><path d="M94 438a2 2 0 110-3 2 2 0 010 3zM102 447a2 2 0 110-4 2 2 0 010 4zM110 455a2 2 0 110-4 2 2 0 010 4zM118 463a2 2 0 110-3 2 2 0 010 3z" class="bz"/><circle cx="51.3" cy="412.4" r="2.3" class="bz"/><path d="M61 422a2 2 0 110-3 2 2 0 010 3zM69 430a2 2 0 110-3 2 2 0 010 3zM77 438a2 2 0 110-3 2 2 0 010 3zM85 447a2 2 0 110-4 2 2 0 010 4z" class="bz"/><circle cx="91.9" cy="453" r="2.3" class="bz"/><circle cx="100" cy="461.2" r="2.3" class="bz"/><path d="M110 471a2 2 0 110-3 2 2 0 010 3z" class="bz"/><path d="M323 125a16 16 0 01-23 0L139-36a16 16 0 010-23 16 16 0 0123 0l161 161a16 16 0 010 23z" class="ca"/><path fill="none" stroke="url(#bt)" stroke-miterlimit="10" stroke-width="4" d="M557 602h0a16 16 0 01-23 0L373 441a16 16 0 010-23h0a16 16 0 0123 0l161 161a16 16 0 010 23z"/><path fill="none" stroke="url(#bu)" stroke-miterlimit="10" stroke-width="4" d="M382 161h0a16 16 0 01-23 0L244 47a16 16 0 010-23h0a16 16 0 0123 0l115 114a16 16 0 010 23z"/><path fill="none" stroke="url(#bv)" stroke-miterlimit="10" stroke-width="4" d="M820 222h0a16 16 0 01-22 0L637 61a16 16 0 010-23h0a16 16 0 0122 0l161 161a16 16 0 010 23z"/><path fill="none" stroke="url(#bw)" stroke-miterlimit="10" stroke-width="4" d="M708 132h0a16 16 0 01-23 0L524-29a16 16 0 010-23h0a16 16 0 0123 0l161 161a16 16 0 010 23z"/><path d="M92 336a16 16 0 01-23 0L-92 175a16 16 0 010-23 16 16 0 0123 0L92 313a16 16 0 010 23z" class="bv"/><path fill="none" stroke="url(#bx)" stroke-miterlimit="10" stroke-width="4" d="M853 491h0a16 16 0 01-22 0L670 330a16 16 0 010-23h0a16 16 0 0122 0l161 161a16 16 0 010 23z"/><path d="M437 457a16 16 0 01-22 0l-63-62a16 16 0 010-23 16 16 0 0123 0l62 62a16 16 0 010 23z" class="ca"/><path fill="none" stroke="url(#by)" stroke-miterlimit="10" d="M-70-25l183 183"/><path d="M463 191l112 113" class="ca"/><path d="M563 395l17 17M541 373l17 16M519 350l17 17M497 328l16 17M154 350l17 16M132 327l17 17M110 305l17 17M88 283l16 17M424 62l17 16M402 39l17 17M380 17l17 17M358-5l16 17" class="ch"/><path d="M679 37l17 17M657 15l16 16M634-8l17 17" class="ca"/><path fill="none" stroke="url(#bz)" stroke-miterlimit="10" d="M647 129l143 144"/><path fill="none" stroke="url(#ca)" stroke-miterlimit="10" d="M171 302l113 112"/><path fill="none" stroke="url(#cb)" stroke-miterlimit="10" d="M24 108l112 113"/><path fill="none" stroke="url(#cc)" stroke-miterlimit="10" d="M399 357l113 112"/><path fill="none" stroke="url(#cd)" stroke-miterlimit="10" d="M367-23L479 89"/><path fill="url(#ce)" stroke="url(#cf)" stroke-miterlimit="10" stroke-width="3" d="M324 159l112 112"/><path d="M590 117l61 61M560 45l61 61" class="co"/><circle cx="384.6" cy="285.8" r="5.9" class="cp"/><circle cx="400.3" cy="301.4" r="5.9" class="cp"/><circle cx="416" cy="317.1" r="5.9" class="cp"/><circle cx="431.6" cy="332.8" r="5.9" class="cp"/><circle cx="475.2" cy="119.3" r="5.9" fill="none" stroke="url(#cg)" stroke-miterlimit="10" stroke-width="4"/><circle cx="490.9" cy="134.9" r="5.9" fill="none" stroke="url(#ch)" stroke-miterlimit="10" stroke-width="4"/><circle cx="506.6" cy="150.6" r="5.9" fill="none" stroke="url(#ci)" stroke-miterlimit="10" stroke-width="4"/><circle cx="522.2" cy="166.3" r="5.9" fill="none" stroke="url(#cj)" stroke-miterlimit="10" stroke-width="4"/><circle cx="191" cy="55.8" r="5.9" class="cp"/><circle cx="206.7" cy="71.4" r="5.9" class="cp"/><circle cx="222.3" cy="87.1" r="5.9" class="cp"/><circle cx="238" cy="102.8" r="5.9" class="cp"/><circle cx="181.8" cy="117.3" r="5.9" fill="none" stroke="url(#ck)" stroke-miterlimit="10" stroke-width="4"/><circle cx="197.4" cy="133" r="5.9" fill="none" stroke="url(#cl)" stroke-miterlimit="10" stroke-width="4"/><circle cx="213.1" cy="148.6" r="5.9" fill="none" stroke="url(#cm)" stroke-miterlimit="10" stroke-width="4"/><circle cx="413.3" cy="199.3" r="5.9" fill="url(#cn)"/><circle cx="428.9" cy="214.9" r="5.9" fill="url(#co)"/><circle cx="444.6" cy="230.6" r="5.9" fill="url(#cp)"/><circle cx="-.1" cy="189.5" r="5.9" class="cp"/><circle cx="15.6" cy="205.2" r="5.9" class="cp"/><circle cx="31.3" cy="220.8" r="5.9" class="cp"/><circle cx="315.8" cy="423.5" r="5.9" class="da"/><circle cx="331.4" cy="439.2" r="5.9" class="da"/><circle cx="347.1" cy="454.8" r="5.9" class="da"/><circle cx="362.8" cy="470.5" r="5.9" class="da"/><path fill="url(#cq)" stroke="url(#cr)" stroke-miterlimit="10" stroke-width="3" d="M194 469l113 112"/><path fill="url(#cs)" stroke="url(#ct)" stroke-miterlimit="10" stroke-width="3" d="M672-42L784 71"/><path fill="url(#cu)" stroke="url(#cv)" stroke-miterlimit="10" stroke-width="3" d="M82 104l94 94"/><path fill="url(#cw)" stroke="url(#cx)" stroke-miterlimit="10" stroke-width="3" d="M308 439l95 95"/><path fill="url(#cy)" stroke="url(#cz)" stroke-miterlimit="10" stroke-width="3" d="M-22 380l95 95"/><path fill="url(#da)" stroke="url(#db)" stroke-miterlimit="10" stroke-width="3" d="M542 186l94 95"/></g></svg>