<svg xmlns="http://www.w3.org/2000/svg" viewBox="0 0 750 500"><defs><clipPath id="a"><path d="M0 0h750v500H0z" class="a"/></clipPath><clipPath id="b"><circle cx="265.6" cy="249.9" r="81.8" class="a"/></clipPath><clipPath id="c"><circle cx="479.3" r="34.8" class="a"/></clipPath><clipPath id="d"><circle cx="142.9" cy="500" r="28.3" class="a"/></clipPath><clipPath id="e"><circle cx="623.3" cy="500" r="81.8" class="a"/></clipPath><style>.a,.aa,.ab,.f,.j,.k,.l,.m,.o,.q,.r,.s,.t,.u,.w,.x,.y{fill:none}.d{fill:#2a2aa0}.f{stroke:#78d6ff}.aa,.f,.j,.m,.o,.q,.r,.s,.t,.w,.y{stroke-miterlimit:10}.f,.j,.o,.q,.s,.t,.u{stroke-width:2px}.j,.t,.w{stroke:#27a0df}.k,.l,.m,.r,.s{stroke:#00e1ff}.ab,.k,.l,.m,.t,.u,.w,.x,.y{stroke-linecap:round}.ab,.k,.l,.u,.x{stroke-linejoin:round}.k,.l,.r{stroke-width:4px}.l{stroke-dasharray:0 8.5}.m{stroke-width:3px}.n{fill:#00e1ff}.o{stroke:#00cfff}.p{fill:#27a0df}.q,.u{stroke:#0074ff}.w,.y{stroke-width:8px}.ab,.x{stroke:#122038}.x{stroke-width:9px}.y{stroke:#83d9ff}.z{fill:#fff}.aa{stroke:#fff}.ab{stroke-width:5px}</style></defs><path fill="#26266d" d="M0 0h750v500H0z"/><g clip-path="url(#a)"><circle cx="319.3" cy="312.1" r="51.1" class="d"/><circle cx="705.1" cy="500" r="81.8" class="d"/><circle cx="81.8" r="81.8" class="d"/><g clip-path="url(#b)"><path d="M174 35l188 189M174 44l188 189M174 54l188 188M174 63l188 189M174 73l188 188M174 82l188 189M174 92l188 188M174 101l188 189M174 111l188 188M174 120l188 189M174 129l188 189M174 139l188 188M174 148l188 189M174 158l188 188M174 167l188 189M174 177l188 188M174 186l188 189M174 196l188 188M174 205l188 189M174 214l188 189M174 224l188 189M174 233l188 189M174 243l188 188M174 252l188 189M174 262l188 188M174 271l188 189M174 281l188 188" class="f"/></g><g clip-path="url(#c)"><path d="M387-187L576 2M387-177L576 11M387-168L576 21M387-158L576 30M387-149L576 40M387-139L576 49M387-130L576 59M387-120L576 68M387-111L576 78M387-102L576 87M387-92L576 97M387-83l189 189M387-73l189 188M387-64l189 189M387-54l189 188M387-45l189 189M387-35l189 188M387-26l189 189M387-17l189 189M387-7l189 189M387 2l189 189M387 12l189 188M387 21l189 189M387 31l189 188" class="f"/></g><g clip-path="url(#d)"><path d="M51 285l189 189M51 294l189 189M51 304l189 189M51 313l189 189M51 323l189 188M51 332l189 189M51 342l189 188M51 351l189 189M51 361l189 188M51 370l189 189M51 379l189 189M51 389l189 189M51 398l189 189M51 408l189 189M51 417l189 189M51 427l189 188M51 436l189 189M51 446l189 188M51 455l189 189M51 465l189 188M51 474l189 189M51 483l189 189M51 493l189 189" class="f"/></g><g clip-path="url(#e)"><path d="M531 285l189 189M531 294l189 189M531 304l189 189M531 313l189 189M531 323l189 188M531 332l189 189M531 342l189 188M531 351l189 189M531 361l189 188M531 370l189 189M531 379l189 189M531 389l189 189M531 398l189 189M531 408l189 189M531 417l189 189M531 427l189 188M531 436l189 189M531 446l189 188M531 455l189 189M531 465l189 188M531 474l189 189M531 483l189 189M531 493l189 189" class="j"/></g><path d="M159 100" class="k"/><path d="M159 92v-4" class="l"/><path d="M159 83" class="k"/><path d="M150 83h-4" class="l"/><path d="M142 83" class="k"/><path d="M142 75v-4" class="l"/><path d="M142 66" class="k"/><path d="M133 66h-4" class="l"/><path d="M125 66" class="k"/><path d="M125 58v-4" class="l"/><path d="M125 49" class="k"/><path d="M116 49h-4" class="l"/><path d="M108 49" class="k"/><path d="M108 41v-4" class="l"/><path d="M108 32" class="k"/><path d="M99 32h-4" class="l"/><path d="M91 32" class="k"/><path d="M91 24v-4" class="l"/><path d="M91 15" class="k"/><path d="M83 15h-5" class="l"/><path d="M148 112" class="k"/><path d="M147 103v-4" class="l"/><path d="M148 95" class="k"/><path d="M139 95h-4" class="l"/><path d="M131 95" class="k"/><path d="M130 86v-4" class="l"/><path d="M131 78" class="k"/><path d="M122 78h-4" class="l"/><path d="M114 78" class="k"/><path d="M113 69v-4" class="l"/><path d="M114 61" class="k"/><path d="M105 61h-4" class="l"/><path d="M97 61" class="k"/><path d="M96 52v-4" class="l"/><path d="M97 44" class="k"/><path d="M88 44h-4" class="l"/><path d="M80 44" class="k"/><path d="M79 35v-4" class="l"/><path d="M80 27" class="k"/><path d="M71 27h-4" class="l"/><path d="M136 123" class="k"/><path d="M136 115v-4" class="l"/><path d="M136 106" class="k"/><path d="M127 106h-4" class="l"/><path d="M119 106" class="k"/><path d="M119 98v-4" class="l"/><path d="M119 89" class="k"/><path d="M110 89h-4" class="l"/><path d="M102 89" class="k"/><path d="M102 81v-4" class="l"/><path d="M102 72" class="k"/><path d="M93 72h-4" class="l"/><path d="M85 72" class="k"/><path d="M85 64v-4" class="l"/><path d="M85 55" class="k"/><path d="M76 55h-4" class="l"/><path d="M68 55" class="k"/><path d="M68 47v-4" class="l"/><path d="M68 38" class="k"/><path d="M60 38h-5" class="l"/><path d="M667 378" class="k"/><path d="M667 370v-5" class="l"/><path d="M667 361" class="k"/><path d="M658 361h-4" class="l"/><path d="M650 361" class="k"/><path d="M650 353v-5" class="l"/><path d="M650 344" class="k"/><path d="M641 344h-4" class="l"/><path d="M633 344" class="k"/><path d="M633 336v-5" class="l"/><path d="M633 327" class="k"/><path d="M624 327h-4" class="l"/><path d="M616 327" class="k"/><path d="M616 319v-5" class="l"/><path d="M616 310" class="k"/><path d="M607 310h-4" class="l"/><path d="M655 390" class="k"/><path d="M655 381v-4" class="l"/><path d="M655 373" class="k"/><path d="M647 373h-5" class="l"/><path d="M638 373" class="k"/><path d="M638 364v-4" class="l"/><path d="M638 356" class="k"/><path d="M630 356h-5" class="l"/><path d="M621 356" class="k"/><path d="M621 347v-4" class="l"/><path d="M621 339" class="k"/><path d="M613 339h-5" class="l"/><path d="M604 339" class="k"/><path d="M604 330v-4" class="l"/><path d="M604 322" class="k"/><path d="M596 322h-5" class="l"/><path d="M644 401" class="k"/><path d="M644 393v-5" class="l"/><path d="M644 384" class="k"/><path d="M635 384h-4" class="l"/><path d="M627 384" class="k"/><path d="M627 376v-5" class="l"/><path d="M627 367" class="k"/><path d="M618 367h-4" class="l"/><path d="M610 367" class="k"/><path d="M610 359v-5" class="l"/><path d="M610 350" class="k"/><path d="M601 350h-4" class="l"/><path d="M593 350" class="k"/><path d="M593 342v-5" class="l"/><path d="M593 333" class="k"/><path d="M584 333h-4" class="l"/><path d="M576 333" class="k"/><path d="M294 474v-17h-17v-17h-17v-17h-17v-17h-17v-17h-17M283 485v-17h-17v-17h-17v-17h-17v-17h-17v-17h-17M548 339v-17h-17v-17h-17v-17h-17v-17h-17v-17h-17M616 203v-17h-17v-17h-17v-17h-17v-17h-17v-17h-17M43 193v-17H26v-17H9v-17H-9v-17h-17v-17h-17M793 382v-17h-17v-17h-17v-17h-17v-17h-17v-17h-17M453 165v-17h-17v-17h-17v-17h-17V97h-17V80h-17" class="m"/><circle cx="113.8" cy="259.9" r="21.1" class="n"/><circle cx="329.3" r="21.1" class="n"/><circle cx="500.5" cy="186.8" r="3.6" class="n"/><circle cx="512" cy="198.3" r="3.6" class="n"/><circle cx="523.5" cy="209.8" r="3.6" class="n"/><circle cx="535" cy="221.3" r="3.6" class="n"/><circle cx="546.5" cy="232.8" r="3.6" class="n"/><circle cx="558" cy="244.3" r="3.6" class="n"/><circle cx="569.5" cy="255.8" r="3.6" class="n"/><path d="M4 330a4 4 0 01-4 3 4 4 0 01-4-3 4 4 0 014-4 4 4 0 014 4zM15 341a4 4 0 11-4-4 4 4 0 014 4zM27 353a4 4 0 11-4-4 4 4 0 014 4zM38 364a4 4 0 11-4-4 4 4 0 014 4zM50 376a4 4 0 11-4-4 4 4 0 014 4zM61 387a4 4 0 11-4-4 4 4 0 014 4zM230 466a4 4 0 11-3-4 4 4 0 013 4zM242 477a4 4 0 11-4-4 4 4 0 014 4zM253 489a4 4 0 11-3-4 4 4 0 013 4zM265 500a4 4 0 11-4-4 4 4 0 014 4zM701 18a4 4 0 11-4-3 4 4 0 014 3zM712 30a4 4 0 11-3-4 4 4 0 013 4zM724 41a4 4 0 11-4-3 4 4 0 014 3zM735 53a4 4 0 11-3-4 4 4 0 013 4zM747 64a4 4 0 11-4-3 4 4 0 014 3z" class="n"/><circle cx="517.5" cy="56.8" r="2.4" class="n"/><circle cx="525" cy="64.3" r="2.4" class="n"/><circle cx="532.5" cy="71.8" r="2.4" class="n"/><circle cx="540" cy="79.3" r="2.4" class="n"/><circle cx="547.5" cy="86.7" r="2.4" class="n"/><circle cx="555" cy="94.2" r="2.4" class="n"/><circle cx="562.4" cy="101.7" r="2.4" class="n"/><circle cx="42.3" cy="481.2" r="2.4" class="n"/><circle cx="49.8" cy="488.7" r="2.4" class="n"/><circle cx="57.3" cy="496.2" r="2.4" class="n"/><circle cx="491.7" cy="387.3" r="21.1" class="o"/><circle cx="668.4" cy="229" r="21.9" class="d"/><path d="M129 256a19 19 0 11-19 19 19 19 0 0119-19m0-2a21 21 0 1021 21 21 21 0 00-21-21zM0 429a17 17 0 0117 17 17 17 0 01-17 17 17 17 0 01-17-17 17 17 0 0117-17m0-4a21 21 0 100 42 21 21 0 0021-21 21 21 0 00-21-21z" class="p"/><circle cx="689.4" cy="207.3" r="1.7" class="p"/><circle cx="695.5" cy="213.4" r="1.7" class="p"/><circle cx="701.6" cy="219.5" r="1.7" class="p"/><circle cx="707.7" cy="225.6" r="1.7" class="p"/><circle cx="713.8" cy="231.7" r="1.7" class="p"/><circle cx="719.9" cy="237.8" r="1.7" class="p"/><circle cx="726" cy="243.9" r="1.7" class="p"/><circle cx="732.1" cy="250" r="1.7" class="p"/><circle cx="683.3" cy="213.4" r="1.7" class="p"/><circle cx="689.4" cy="219.5" r="1.7" class="p"/><circle cx="695.5" cy="225.6" r="1.7" class="p"/><circle cx="701.6" cy="231.7" r="1.7" class="p"/><circle cx="707.7" cy="237.8" r="1.7" class="p"/><circle cx="713.8" cy="243.9" r="1.7" class="p"/><circle cx="719.9" cy="250" r="1.7" class="p"/><path d="M727 257a2 2 0 110-2 2 2 0 010 2z" class="p"/><circle cx="677.2" cy="219.5" r="1.7" class="p"/><circle cx="683.3" cy="225.6" r="1.7" class="p"/><circle cx="689.4" cy="231.7" r="1.7" class="p"/><circle cx="695.5" cy="237.8" r="1.7" class="p"/><circle cx="701.6" cy="243.9" r="1.7" class="p"/><circle cx="707.7" cy="250" r="1.7" class="p"/><path d="M715 257a2 2 0 01-2 0 2 2 0 010-2 2 2 0 112 2z" class="p"/><circle cx="719.9" cy="262.2" r="1.7" class="p"/><circle cx="671.1" cy="225.6" r="1.7" class="p"/><circle cx="677.2" cy="231.7" r="1.7" class="p"/><circle cx="683.3" cy="237.8" r="1.7" class="p"/><circle cx="689.4" cy="243.9" r="1.7" class="p"/><circle cx="695.5" cy="250" r="1.7" class="p"/><path d="M703 257a2 2 0 01-3 0 2 2 0 010-2 2 2 0 113 2z" class="p"/><circle cx="707.7" cy="262.2" r="1.7" class="p"/><circle cx="713.8" cy="268.3" r="1.7" class="p"/><circle cx="665" cy="231.7" r="1.7" class="p"/><circle cx="671.1" cy="237.8" r="1.7" class="p"/><circle cx="677.2" cy="243.9" r="1.7" class="p"/><circle cx="683.3" cy="250" r="1.7" class="p"/><path d="M691 257a2 2 0 110-2 2 2 0 010 2z" class="p"/><circle cx="695.5" cy="262.2" r="1.7" class="p"/><circle cx="701.6" cy="268.3" r="1.7" class="p"/><path d="M709 276a2 2 0 01-3 0 2 2 0 113-3 2 2 0 010 3z" class="p"/><circle cx="658.9" cy="237.8" r="1.7" class="p"/><circle cx="665" cy="243.9" r="1.7" class="p"/><circle cx="671.1" cy="250" r="1.7" class="p"/><path d="M678 257a2 2 0 110-2 2 2 0 010 2z" class="p"/><circle cx="683.3" cy="262.2" r="1.7" class="p"/><circle cx="689.4" cy="268.3" r="1.7" class="p"/><path d="M697 276a2 2 0 01-3-3 2 2 0 113 3z" class="p"/><circle cx="701.6" cy="280.5" r="1.7" class="p"/><circle cx="652.8" cy="243.9" r="1.7" class="p"/><circle cx="658.9" cy="250" r="1.7" class="p"/><path d="M666 257a2 2 0 110-2 2 2 0 010 2z" class="p"/><circle cx="671.1" cy="262.2" r="1.7" class="p"/><circle cx="677.2" cy="268.3" r="1.7" class="p"/><path d="M684 276a2 2 0 11-2-3 2 2 0 012 3z" class="p"/><circle cx="689.4" cy="280.5" r="1.7" class="p"/><path d="M697 288a2 2 0 110-3 2 2 0 010 3z" class="p"/><circle cx="646.7" cy="250" r="1.7" class="p"/><path d="M654 257a2 2 0 110-2 2 2 0 010 2z" class="p"/><circle cx="658.9" cy="262.2" r="1.7" class="p"/><circle cx="665" cy="268.3" r="1.7" class="p"/><path d="M672 276a2 2 0 01-2-3 2 2 0 112 3z" class="p"/><circle cx="677.2" cy="280.5" r="1.7" class="p"/><path d="M684 288a2 2 0 110-3 2 2 0 010 3z" class="p"/><circle cx="689.4" cy="292.7" r="1.7" class="p"/><path d="M110 357a2 2 0 110-3 2 2 0 010 3zM118 365a2 2 0 110-3 2 2 0 010 3z" class="p"/><circle cx="124.4" cy="371.8" r="2.3" class="p"/><circle cx="132.6" cy="379.9" r="2.3" class="p"/><path d="M142 390a2 2 0 110-4 2 2 0 010 4zM150 398a2 2 0 110-3 2 2 0 010 3zM159 406a2 2 0 110-3 2 2 0 010 3zM167 414a2 2 0 110-3 2 2 0 010 3z" class="p"/><circle cx="100" cy="363.6" r="2.3" class="p"/><path d="M110 373a2 2 0 110-3 2 2 0 010 3zM118 381a2 2 0 110-3 2 2 0 010 3zM126 390a2 2 0 110-4 2 2 0 010 4zM134 398a2 2 0 110-3 2 2 0 010 3z" class="p"/><circle cx="140.7" cy="404.3" r="2.3" class="p"/><circle cx="148.8" cy="412.4" r="2.3" class="p"/><path d="M159 422a2 2 0 110-3 2 2 0 010 3z" class="p"/><circle cx="91.9" cy="371.8" r="2.3" class="p"/><circle cx="100" cy="379.9" r="2.3" class="p"/><path d="M110 390a2 2 0 110-4 2 2 0 010 4zM118 398a2 2 0 110-3 2 2 0 010 3z" class="p"/><circle cx="124.4" cy="404.3" r="2.3" class="p"/><circle cx="132.6" cy="412.4" r="2.3" class="p"/><circle cx="140.7" cy="420.5" r="2.3" class="p"/><circle cx="148.8" cy="428.6" r="2.3" class="p"/><circle cx="83.8" cy="379.9" r="2.3" class="p"/><path d="M94 390a2 2 0 110-4 2 2 0 010 4zM102 398a2 2 0 110-3 2 2 0 010 3zM110 406a2 2 0 110-3 2 2 0 010 3zM118 414a2 2 0 110-3 2 2 0 010 3z" class="p"/><circle cx="124.4" cy="420.5" r="2.3" class="p"/><circle cx="132.6" cy="428.6" r="2.3" class="p"/><path d="M142 438a2 2 0 110-3 2 2 0 010 3zM77 390a2 2 0 110-4 2 2 0 010 4zM85 398a2 2 0 110-3 2 2 0 010 3z" class="p"/><circle cx="91.9" cy="404.3" r="2.3" class="p"/><circle cx="100" cy="412.4" r="2.3" class="p"/><path d="M110 422a2 2 0 110-3 2 2 0 010 3zM118 430a2 2 0 110-3 2 2 0 010 3zM126 438a2 2 0 110-3 2 2 0 010 3zM134 447a2 2 0 110-4 2 2 0 010 4zM69 398a2 2 0 110-3 2 2 0 010 3zM77 406a2 2 0 110-3 2 2 0 010 3z" class="p"/><circle cx="83.8" cy="412.4" r="2.3" class="p"/><circle cx="91.9" cy="420.5" r="2.3" class="p"/><circle cx="100" cy="428.6" r="2.3" class="p"/><path d="M110 438a2 2 0 110-3 2 2 0 010 3zM118 447a2 2 0 110-4 2 2 0 010 4z" class="p"/><circle cx="124.4" cy="453" r="2.3" class="p"/><path d="M61 406a2 2 0 110-3 2 2 0 010 3zM69 414a2 2 0 110-3 2 2 0 010 3zM77 422a2 2 0 110-3 2 2 0 010 3z" class="p"/><circle cx="83.8" cy="428.6" r="2.3" class="p"/><path d="M94 438a2 2 0 110-3 2 2 0 010 3zM102 447a2 2 0 110-4 2 2 0 010 4zM110 455a2 2 0 110-4 2 2 0 010 4zM118 463a2 2 0 110-3 2 2 0 010 3z" class="p"/><circle cx="51.3" cy="412.4" r="2.3" class="p"/><path d="M61 422a2 2 0 110-3 2 2 0 010 3zM69 430a2 2 0 110-3 2 2 0 010 3zM77 438a2 2 0 110-3 2 2 0 010 3zM85 447a2 2 0 110-4 2 2 0 010 4z" class="p"/><circle cx="91.9" cy="453" r="2.3" class="p"/><circle cx="100" cy="461.2" r="2.3" class="p"/><path d="M110 471a2 2 0 110-3 2 2 0 010 3z" class="p"/><path d="M323 125a16 16 0 01-23 0L139-36a16 16 0 010-23 16 16 0 0123 0l161 161a16 16 0 010 23z" class="q"/><path d="M557 602a16 16 0 01-23 0L373 441a16 16 0 010-23 16 16 0 0123 0l161 161a16 16 0 010 23z" class="r"/><path d="M382 161a16 16 0 01-23 0L244 47a16 16 0 010-23 16 16 0 0123 0l115 114a16 16 0 010 23zM820 222a16 16 0 01-22 0L637 61a16 16 0 010-23 16 16 0 0122 0l161 161a16 16 0 010 23z" class="s"/><path d="M708 132a16 16 0 01-23 0L524-29a16 16 0 010-23 16 16 0 0123 0l161 161a16 16 0 010 23z" class="r"/><path d="M92 336a16 16 0 01-23 0L-92 175a16 16 0 010-23 16 16 0 0123 0L92 313a16 16 0 010 23z" class="o"/><path d="M853 491a16 16 0 01-22 0L670 330a16 16 0 010-23 16 16 0 0122 0l161 161a16 16 0 010 23z" class="s"/><path d="M437 457a16 16 0 01-22 0l-63-62a16 16 0 010-23 16 16 0 0123 0l62 62a16 16 0 010 23z" class="q"/><path d="M-70-25l183 183" class="t"/><path d="M463 191l112 113" class="q"/><path d="M563 395l17 17M541 373l17 16M519 350l17 17M497 328l16 17M154 350l17 16M132 327l17 17M110 305l17 17M88 283l16 17M424 62l17 16M402 39l17 17M380 17l17 17M358-5l16 17" class="u"/><path d="M679 37l17 17M657 15l16 16M634-8l17 17" class="q"/><path d="M647 129l143 144" class="t"/><path fill="none" stroke="#27a0df" stroke-linecap="round" stroke-miterlimit="10" stroke-width="4" d="M171 302l113 112"/><path d="M24 108l112 113M399 357l113 112M367-23L479 89" class="w"/><path d="M324 159l112 112" class="x"/><path d="M590 117l61 61M560 45l61 61" class="y"/><circle cx="384.6" cy="285.8" r="5.9" class="z"/><circle cx="400.3" cy="301.4" r="5.9" class="z"/><circle cx="416" cy="317.1" r="5.9" class="z"/><circle cx="431.6" cy="332.8" r="5.9" class="z"/><circle cx="475.2" cy="119.3" r="5.9" class="s"/><circle cx="490.9" cy="134.9" r="5.9" class="s"/><circle cx="506.6" cy="150.6" r="5.9" class="s"/><circle cx="522.2" cy="166.3" r="5.9" class="s"/><circle cx="191" cy="55.8" r="5.9" class="z"/><circle cx="206.7" cy="71.4" r="5.9" class="z"/><circle cx="222.3" cy="87.1" r="5.9" class="z"/><circle cx="238" cy="102.8" r="5.9" class="z"/><circle cx="181.8" cy="117.3" r="5.9" class="s"/><circle cx="197.4" cy="133" r="5.9" class="s"/><circle cx="213.1" cy="148.6" r="5.9" class="s"/><circle cx="413.3" cy="199.3" r="5.9" class="d"/><circle cx="428.9" cy="214.9" r="5.9" class="d"/><circle cx="444.6" cy="230.6" r="5.9" class="d"/><circle cx="-.1" cy="189.5" r="5.9" class="z"/><circle cx="15.6" cy="205.2" r="5.9" class="z"/><circle cx="31.3" cy="220.8" r="5.9" class="z"/><circle cx="315.8" cy="423.5" r="5.9" class="aa"/><circle cx="331.4" cy="439.2" r="5.9" class="aa"/><circle cx="347.1" cy="454.8" r="5.9" class="aa"/><circle cx="362.8" cy="470.5" r="5.9" class="aa"/><path d="M194 469l113 112M672-42L784 71" class="x"/><path d="M82 104l94 94M308 439l95 95M-22 380l95 95M542 186l94 95" class="ab"/></g><path stroke="#231f20" stroke-miterlimit="10" d="M0 0h750v500H0z" opacity=".8"/></svg>